inDegrees=yes
name=ik_Xsens
DataType=double
version=3
OpenSimVersion=4.4-2022-07-23-0e9fedc
endheader
time	pelvis_tilt	pelvis_list	pelvis_rotation	pelvis_tx	pelvis_ty	pelvis_tz	hip_flexion_r	hip_adduction_r	hip_rotation_r	knee_angle_r	knee_angle_r_beta	ankle_angle_r	subtalar_angle_r	mtp_angle_r	hip_flexion_l	hip_adduction_l	hip_rotation_l	knee_angle_l	knee_angle_l_beta	ankle_angle_l	subtalar_angle_l	mtp_angle_l	lumbar_extension	lumbar_bending	lumbar_rotation	arm_flex_r	arm_add_r	arm_rot_r	elbow_flex_r	pro_sup_r	wrist_flex_r	wrist_dev_r	arm_flex_l	arm_add_l	arm_rot_l	elbow_flex_l	pro_sup_l	wrist_flex_l	wrist_dev_l
15.68333333333333	0	0	0	0	0.93	0	0	0	0	0	0	0	0	0	0	0	0	0	0	0	0	0	0	0	0	-7.597720670641976	6.224319230394925	32.02127723220406	4.2045555216942	17.24171909578338	0	0	9.202302674953824	-0.6183499457432301	49.98237073839906	1.182800044711348	20.67185697345924	0	0
15.7	0	0	0	0	0.93	0	0	0	0	0	0	0	0	0	0	0	0	0	0	0	0	0	0	0	0	-7.610472277421924	6.238447593175482	32.05480921081552	4.198297130346317	17.36398503794151	0	0	9.187545009288133	-0.6343194892879377	49.84754785223529	1.222837172913221	20.76031353665452	0	0
15.71666666666667	0	0	0	0	0.93	0	4.594144125593695e-49	0	0	2.426570649309934e-20	0	0	0	0	4.594144125593695e-49	0	0	2.426570649309934e-20	0	0	0	0	0	0	0	-7.608479986765798	6.256717345834881	32.17562107688298	4.2246957420202	17.29186939104878	0	0	9.179182091504344	-0.6424882042737298	49.75574907086102	1.256585556102612	20.81679665424257	0	0
15.73333333333333	0	0	0	0	0.93	0	2.297072062796848e-49	0	0	1.213285324654967e-20	-2.62077025759375e-23	0	0	0	2.297072062796848e-49	0	0	1.213285324654967e-20	-2.62077025759375e-23	0	0	0	0	0	0	-7.627654827312362	6.266142897912955	32.21983586084308	4.269756179646706	17.21031500062158	0	0	9.179003116297679	-0.6265237006819314	49.72943417560218	1.267625398284327	20.79489790602453	0	0
15.75	0	0	0	0	0.93	0	2.297072062796848e-49	0	0	1.213285324654967e-20	1.310385128796874e-23	0	0	0	2.297072062796848e-49	0	0	1.213285324654967e-20	1.310385128796874e-23	0	0	0	0	0	0	-7.651478793082925	6.268526701607441	32.23366901162171	4.305685574073583	17.12180764351713	0	0	9.178626180924729	-0.6202581985277867	49.72125305555501	1.280092897261756	20.81065277832611	0	0
15.76666666666667	-1.388359409641569e-25	7.816695959729525e-25	-1.204604291242604e-22	2.320386740514634e-22	0.93	9.081953495898027e-19	-9.065965255248044e-32	-1.759788812150454e-19	2.085334151746174e-33	0	-1.578715670521368e-18	5.097995814034492e-16	-4.857949344009889e-20	1.899133625821081e-16	3.251355780353924e-25	-2.84007486322956e-25	-1.03489198154832e-16	0	-3.482315361197208e-18	5.41912515536147e-15	3.391349348765637e-20	3.357404721173373e-20	1.035004890407034e-16	4.56104999912676e-15	1.374833277024433e-15	-7.67627876257921	6.276673402915089	32.25397756401158	4.344524490056855	17.13359000352519	-1.428867095014641e-18	-6.557744648315397e-18	9.174533399558507	-0.6292504576149964	49.68416316363361	1.305291945853445	20.90768638789459	6.862048889207342e-17	5.664617726497432e-18
15.78333333333333	1.833702876334306e-24	3.66709367199379e-18	-1.739018569879944e-24	1.079945140398722e-19	0.93	-4.513257448519286e-19	1.595630025526368e-27	-7.262028765815202e-17	-1.808876019699884e-38	0	-1.398060479211146e-17	1.449518563842539e-18	-6.512136012586613e-18	1.863490771803028e-18	8.943714712161315e-17	2.214496445916143e-33	4.103978460277146e-25	0	-4.167599492723981e-18	4.026951994082362e-17	-4.07352326380808e-19	2.250454703210922e-18	7.456771229269715e-23	-3.655670240836669e-17	5.408803976444117e-14	-7.689738794107374	6.279564580732393	32.28273990873215	4.370244551815937	17.20290114193059	5.887809069009826e-18	-7.922790790975981e-19	9.168361145067717	-0.6439292102225227	49.62651231315689	1.34557666603797	21.04745525761156	5.189881930491455e-20	2.458032565405514e-17
15.8	8.028848784397557e-44	1.683771628589691e-37	-8.028848784397557e-44	4.408103815583578e-39	0.93	-1.763241526233431e-38	7.84067264101324e-47	-2.694034605743505e-36	-8.557260270404993e-58	2.426570649309934e-20	-1.033518167925357e-22	6.31414360721134e-38	-2.525657442884536e-37	8.418858142948453e-38	4.041051908615258e-36	1.121617218162523e-52	2.007212196099389e-44	2.426570649309934e-20	5.795646569274449e-23	2.020525954307629e-36	-1.578535901802835e-38	8.418858142948453e-38	3.853847416510828e-42	-1.347017302871753e-36	2.069018577211012e-33	-7.694133893462219	6.27623601924333	32.31569153141893	4.424160899062132	17.23328462875484	2.525657442884536e-37	-3.15707180360567e-38	9.15075122843694	-0.6644195096700778	49.55836565690614	1.404739840565294	21.15008339136471	1.973169877253544e-39	1.010262977153814e-36
15.81666666666667	3.264335735475537e-63	6.845808216323994e-57	-3.264335735475537e-63	1.593091911132452e-58	0.93	-6.372367644529809e-58	4.594144125593695e-49	-1.095329314611839e-55	-3.092600058565663e-77	2.426570649309934e-20	-1.033518167925357e-22	2.281936072107998e-57	-9.127744288431992e-57	3.422904108161997e-57	4.594144125593695e-49	4.053532748763186e-72	8.160839338688844e-64	2.426570649309934e-20	5.795646569274449e-23	7.302195430745594e-56	-5.704840180269995e-58	3.422904108161997e-57	1.392783247136229e-61	-5.476646573059195e-56	7.477448121083488e-53	-7.707370944266356	6.296771967432274	32.34660118763454	4.409602151924908	17.18255444332385	9.127744288431992e-57	-1.140968036053999e-57	9.137502731724348	-0.6531108577666175	49.56805974018906	1.430399668904511	21.06804826689248	7.131050225337494e-59	3.651097715372797e-56
15.83333333333333	1.179733298708215e-82	2.47408004685253e-76	-1.179733298708215e-82	6.477126416320833e-78	0.93	-2.590850566528333e-77	4.594144125593695e-49	-3.958528074964048e-75	-1.257376388297134e-96	2.426570649309934e-20	-5.093641164066065e-23	9.277800175696988e-77	-3.711120070278795e-76	1.237040023426265e-76	4.594144125593695e-49	1.648068379668819e-91	2.949333246770537e-83	2.426570649309934e-20	-1.013863659689555e-22	2.968896056223036e-75	-2.319450043924247e-77	1.237040023426265e-76	5.662719833799431e-81	-1.979264037482024e-75	3.040149561572389e-72	-7.721300805056666	6.321471514812167	32.31612888461688	4.407492967528369	17.1341838415746	3.711120070278795e-76	-4.638900087848494e-77	9.116127401456367	-0.6386137763966281	49.58403303895069	1.451310793813646	21.00800006399824	2.899312554905309e-78	1.484448028111518e-75
15.85	4.796510270298514e-102	1.005901110637707e-95	-4.796510270298514e-102	2.340838177346099e-97	0.93	-9.363352709384397e-97	4.594144125593695e-49	-1.609441777020331e-94	-4.544167372745765e-116	2.426570649309934e-20	-5.093641164066065e-23	3.35300370212569e-96	-1.341201480850276e-95	5.029505553188535e-96	4.594144125593695e-49	5.956131058805329e-111	1.199127567574629e-102	2.426570649309934e-20	-1.013863659689555e-22	1.072961184680221e-94	-8.382509255314225e-97	5.029505553188535e-96	2.046511048660699e-100	-8.047208885101656e-95	1.098712253112546e-91	-7.7322207460183	6.346050996330388	32.26162324877223	4.396161253033693	17.12455910171972	1.341201480850276e-95	-1.676501851062845e-96	9.108565300777077	-0.6279623314445524	49.60281844197128	1.463551831243307	20.99225490678621	1.047813656914278e-97	5.364805923401104e-95
15.86666666666667	1.733462285135561e-121	3.635333898196612e-115	-1.733462285135561e-121	9.517281889933685e-117	0.93	-3.806912755973474e-116	4.594144125593695e-49	-5.816534237114579e-114	-1.847548551625765e-135	2.426570649309934e-20	-5.093641164066065e-23	1.36325021182373e-115	-5.453000847294918e-115	1.817666949098306e-115	4.594144125593695e-49	2.421618837586922e-130	4.333655712838903e-122	2.426570649309934e-20	-1.013863659689555e-22	4.362400677835935e-114	-3.408125529559324e-116	1.817666949098306e-115	8.320618968650693e-120	-2.90826711855729e-114	4.467098294103997e-111	-7.738689754475984	6.364194651882188	32.21999102742291	4.364307810178281	17.17659059482024	5.453000847294918e-115	-6.816251059118648e-116	9.095969939973246	-0.6297800401624762	49.58778416262881	1.490412957811349	21.00470314589355	4.260156911949155e-117	2.181200338917967e-114
